<svg xmlns="http://www.w3.org/2000/svg" fill="none" viewBox="0 0 24 24" id="bootstrap"><path fill="#595bd4" fill-rule="evenodd" d="M9 7C8.44772 7 8 7.44772 8 8V16C8 16.5523 8.44772 17 9 17H13C13.7957 17 14.5587 16.6839 15.1213 16.1213C15.6839 15.5587 16 14.7957 16 14C16 13.2043 15.6839 12.4413 15.1213 11.8787C15.0676 11.825 15.0121 11.7735 14.9549 11.7244C15.3073 11.2228 15.5 10.6213 15.5 10C15.5 9.20435 15.1839 8.44129 14.6213 7.87868C14.0587 7.31607 13.2957 7 12.5 7H9ZM13 15H10V13H13C13.2652 13 13.5196 13.1054 13.7071 13.2929C13.8946 13.4804 14 13.7348 14 14C14 14.2652 13.8946 14.5196 13.7071 14.7071C13.5196 14.8946 13.2652 15 13 15ZM12.5 11H10V9H12.5C12.7652 9 13.0196 9.10536 13.2071 9.29289C13.3946 9.48043 13.5 9.73478 13.5 10C13.5 10.2652 13.3946 10.5196 13.2071 10.7071C13.0196 10.8946 12.7652 11 12.5 11Z" clip-rule="evenodd" class="color051344 svgShape"></path><path fill="#595bd4" fill-rule="evenodd" d="M1 12C1 12.5523 1.44772 13 2 13C2.26522 13 2.51957 13.1054 2.70711 13.2929C2.89464 13.4804 3 13.7348 3 14V18C3 18.7956 3.31607 19.5587 3.87868 20.1213C4.44129 20.6839 5.20435 21 6 21H18C18.7957 21 19.5587 20.6839 20.1213 20.1213C20.6839 19.5587 21 18.7957 21 18V14C21 13.7348 21.1054 13.4804 21.2929 13.2929C21.4804 13.1054 21.7348 13 22 13C22.5523 13 23 12.5523 23 12C23 11.4477 22.5523 11 22 11C21.7348 11 21.4804 10.8946 21.2929 10.7071C21.1054 10.5196 21 10.2652 21 10V6C21 5.20435 20.6839 4.44129 20.1213 3.87868C19.5587 3.31607 18.7957 3 18 3H6C5.20435 3 4.44129 3.31607 3.87868 3.87868C3.31607 4.44129 3 5.20435 3 6V10C3 10.2652 2.89464 10.5196 2.70711 10.7071C2.51957 10.8946 2.26522 11 2 11C1.44772 11 1 11.4477 1 12ZM6 5C5.73478 5 5.48043 5.10536 5.29289 5.29289C5.10536 5.48043 5 5.73478 5 6V10C5 10.7398 4.72672 11.4515 4.23607 12C4.72672 12.5485 5 13.2602 5 14V18C5 18.2652 5.10536 18.5196 5.29289 18.7071C5.48043 18.8946 5.73478 19 6 19H18C18.2652 19 18.5196 18.8946 18.7071 18.7071C18.8946 18.5196 19 18.2652 19 18V14C19 13.2602 19.2733 12.5485 19.7639 12C19.2733 11.4515 19 10.7398 19 10V6C19 5.73478 18.8946 5.48043 18.7071 5.29289C18.5196 5.10536 18.2652 5 18 5H6Z" clip-rule="evenodd" class="color051344 svgShape"></path></svg>